<svg xmlns="http://www.w3.org/2000/svg" viewBox="0 0 64 80" x="0px" y="0px">

<style>
    .background { fill: #4169E1; } /* Royal Blue background color */
    .path { fill: #FFFFFF; } /* White color for the path */
  </style>
  <rect class="background" width="100%" height="100%"/>

<path class='path' d="M61.274,38.038l-9.7-2.771a6.371,6.371,0,0,0-4.295.285c.34-1.091.651-2.2.895-3.342A1,1,0,0,0,47.2,31H43.781l-1.432-5.729A3,3,0,0,0,39.438,23H24.562a3,3,0,0,0-2.911,2.272L20.219,31H16.8a1,1,0,0,0-.978,1.21c.244,1.141.555,2.252.9,3.343a6.38,6.38,0,0,0-4.3-.286l-9.7,2.771A1,1,0,0,0,2,39V61a1,1,0,0,0,1,1H61a1,1,0,0,0,1-1V39A1,1,0,0,0,61.274,38.038ZM21,33a1,1,0,0,0,.97-.758l1.621-6.484A1,1,0,0,1,24.562,25H39.438a1,1,0,0,1,.971.757L41.72,31H24v2H45.938a34.672,34.672,0,0,1-1.168,3.766l-.707,1.882a1.014,1.014,0,0,0-.061.3l-.826,14.865a2.323,2.323,0,0,1-2.711,2.159,2.43,2.43,0,0,1-1.921-2.082L36.435,39.818a4.5,4.5,0,0,0-1.867-3.009A4.441,4.441,0,0,0,32.005,36a4.657,4.657,0,0,0-.934.1,4.581,4.581,0,0,0-3.525,3.853L25.435,54.023a2.319,2.319,0,0,1-2.552,1.963,2.444,2.444,0,0,1-2.069-2.347L20,38.944a1.014,1.014,0,0,0-.061-.3l-.707-1.881A34.759,34.759,0,0,1,18.062,33ZM60,60H4V39.754l8.975-2.564a4.382,4.382,0,0,1,5.04,2.11l.8,14.45A4.315,4.315,0,0,0,23.142,58a4.313,4.313,0,0,0,4.271-3.68l2.111-14.075a2.575,2.575,0,0,1,1.949-2.191,2.487,2.487,0,0,1,2.983,2.061l2.109,14.068a4.449,4.449,0,0,0,3.58,3.759,4.321,4.321,0,0,0,5.027-4.022l.813-14.62a4.384,4.384,0,0,1,5.04-2.11L60,39.754Z"/><path class='path' d="M37.2,2.685a13.247,13.247,0,0,1-10.394,0A8.467,8.467,0,0,0,15,10.467a37.106,37.106,0,0,0,.826,7.742A1,1,0,0,0,16.8,19H47.2a1,1,0,0,0,.978-.791A37.106,37.106,0,0,0,49,10.467,8.467,8.467,0,0,0,37.2,2.685ZM47,10.467A34.993,34.993,0,0,1,46.378,17H17.622A34.993,34.993,0,0,1,17,10.467a6.47,6.47,0,0,1,9.016-5.945,15.248,15.248,0,0,0,11.968,0A6.47,6.47,0,0,1,47,10.467Z"/><path class='path' d="M19,11.805V13h2v-1.2a4.614,4.614,0,0,1,2.5-3.937L22.5,6.132A6.584,6.584,0,0,0,19,11.805Z"/></svg>