<svg xmlns="http://www.w3.org/2000/svg" xmlns:xlink="http://www.w3.org/1999/xlink" version="1.1" x="0px" y="0px" viewBox="0 0 100 125" style="enable-background:new 0 0 100 100;" xml:space="preserve">
  <style>
    .background { fill: #4169E1; } /* Royal Blue background color */
    .path { fill: #FFFFFF; } /* White color for the path */
  </style>
  <rect class="background" width="100%" height="100%"/>
  <path class="path" d="M89.68,56.8V43.66c0-0.31-0.15-0.58-0.37-0.76c0.9-0.67,1.45-1.65,1.56-2.85c0.24-2.62-1.8-6.2-5.63-7.68c-6.67-2.57-14.82-0.88-25.01,2.44c-5.27,1.72-10.28-1.83-15.37-5.94c-0.24-0.2-0.56-0.26-0.86-0.19c-0.3,0.07-0.55,0.28-0.68,0.56c-0.12,0.27-2.91,6.61-0.42,10.9c0.88,1.51,2.28,2.56,4.17,3.15c-0.05,0.12-0.08,0.24-0.08,0.37v13.01H6.03c-0.55,0-1,0.45-1,1V69.3c0,0.3,0.14,0.59,0.37,0.78c0.24,0.19,0.55,0.26,0.84,0.2c0.3-0.07,30.14-6.64,38.29-2.21c4.75,2.58,14.11,3.29,22.98,3.29c10.27,0,19.88-0.95,20.93-1.06c3.59-0.03,6.5-2.96,6.5-6.56v-0.51C94.97,60.05,92.69,57.39,89.68,56.8z M79.9,56.67V44.66h3.28v12.01H79.9z M74.62,56.67V44.66h3.28v12.01H74.62z M69.34,56.67V44.66h3.28v12.01H69.34z M64.06,56.67V44.66h3.28v12.01H64.06z M58.78,56.67V44.66h3.28v12.01H58.78z M53.5,56.67V44.66h3.28v12.01H53.5z M85.17,44.66h2.5v12.01h-2.5V44.66z M44.63,39.14c-1.42-2.43-0.56-5.99,0.05-7.85c5.17,4.08,10.35,7.32,16.17,5.42c8.47-2.76,17.19-4.97,23.67-2.48c2.91,1.12,4.53,3.8,4.36,5.63c-0.1,1.05-0.75,1.69-1.95,1.92c-4.47,0.84-27.13,0.97-37.27-0.01C47.2,41.53,45.5,40.64,44.63,39.14z M48.99,44.66h2.5v12.01h-2.5V44.66z M92.97,63.74c0,2.51-2.04,4.56-4.56,4.56c-0.03,0-0.07,0-0.1,0.01c-0.33,0.03-33,3.33-42.81-2c-2.35-1.28-6.18-1.75-10.57-1.75c-10.36,0-23.78,2.64-27.9,3.5v-9.39h81.38c2.51,0,4.56,2.05,4.56,4.56V63.74z"/>
</svg>
