<svg xmlns="http://www.w3.org/2000/svg" xmlns:xlink="http://www.w3.org/1999/xlink" version="1.1" x="0px" y="0px" viewBox="0 0 100 125" style="enable-background:new 0 0 100 100;" xml:space="preserve">

<style>
    .background { fill: #4169E1; } /* Royal Blue background color */
    .path { fill: #FFFFFF; } /* White color for the path */
  </style>
  <rect class="background" width="100%" height="100%"/>

<path class='path' d="M92.24,27.36c0.05-7.19-2.66-13.88-7.06-17.45c-9.16-7.43-17.79-3.65-26.14,0c-3.46,1.52-6.73,2.94-10.01,3.59   c-1.47-0.6-2.99-1.27-4.54-1.96c-9.61-4.25-20.51-9.06-29.66-1.64c-4.4,3.57-7.11,10.26-7.06,17.45   c0.06,8.67,4.04,16.65,11.21,22.55c-0.85,2.56-1.65,8.82,0.2,24.04C20.98,88.7,31.5,94.33,35.9,94.33c0.14,0,0.28-0.01,0.41-0.02   c1.53-0.14,2.74-0.8,3.58-1.96c1.78-2.44,1.86-7.13,0.25-14.33c-1.34-6-0.75-11.07,1.67-14.26c1.79-2.37,4.5-3.66,8-3.85l0.3,0   c3.55,0.19,6.26,1.48,8.05,3.85c2.42,3.19,3.01,8.26,1.67,14.26c-1.61,7.2-1.53,11.88,0.25,14.33c0.84,1.16,2.05,1.82,3.58,1.96   c4.12,0.37,15.27-5.13,17.13-20.36c1.86-15.19,1.06-21.47,0.21-24.03C88.19,44.02,92.18,36.04,92.24,27.36z M79.24,48.8   c-0.38,0.28-0.54,0.78-0.33,1.22c0.52,1.12,2.06,6.13-0.09,23.69c-1.67,13.68-11.51,18.93-14.97,18.61   c-0.96-0.09-1.64-0.45-2.15-1.14c-0.96-1.32-1.73-4.6,0.08-12.71c1.48-6.59,0.76-12.24-2.03-15.91c-2.14-2.82-5.44-4.42-9.59-4.64   l-0.41,0c-4.1,0.22-7.4,1.82-9.54,4.64c-2.78,3.67-3.5,9.32-2.03,15.91c1.82,8.11,1.05,11.39,0.08,12.71   c-0.5,0.69-1.19,1.05-2.15,1.14c-3.42,0.33-13.29-4.93-14.97-18.61c-2.15-17.56-0.61-22.57-0.09-23.69c0.14-0.3,0.1-0.63-0.05-0.9   c0,0,0,0,0,0c-0.06-0.11-0.14-0.2-0.24-0.28c-0.01-0.01-0.01-0.02-0.02-0.02c-9.5-7.5-10.98-16.67-11.01-21.46   c-0.04-6.5,2.44-12.73,6.32-15.88c8.2-6.65,18.06-2.29,27.59,1.92c4.2,1.85,8.16,3.6,11.78,4.27c0.54,0.1,1.06-0.26,1.17-0.8   c0.1-0.54-0.26-1.06-0.8-1.17c-1.13-0.21-2.31-0.55-3.54-0.96c2.55-0.79,5.08-1.9,7.56-2.98C68,8.18,75.7,4.8,83.92,11.47   c3.88,3.15,6.36,9.38,6.32,15.88C90.2,32.14,88.73,41.3,79.24,48.8z"/><path class="path" d="M86.25,24.61c0.01-0.06,0.04-0.11,0.04-0.16c0-0.01-0.01-0.03-0.01-0.04c0-0.01,0.01-0.03,0.01-0.04   c0-0.05-0.03-0.1-0.04-0.15c-0.01-0.07-0.02-0.13-0.05-0.2c-0.03-0.06-0.07-0.11-0.11-0.17c-0.03-0.05-0.06-0.1-0.1-0.14   c-0.06-0.06-0.12-0.1-0.19-0.14c-0.04-0.02-0.07-0.05-0.12-0.07c-0.07-0.03-0.16-0.05-0.24-0.06c-0.04-0.01-0.08-0.03-0.12-0.03   c-6.63-0.27-9.83-10.96-9.86-11.07c-0.01-0.04-0.04-0.06-0.05-0.09c-0.03-0.06-0.06-0.12-0.09-0.18c-0.04-0.05-0.07-0.1-0.12-0.14   c-0.04-0.05-0.09-0.08-0.15-0.12c-0.06-0.04-0.11-0.07-0.18-0.09c-0.03-0.01-0.06-0.04-0.1-0.05c-0.03-0.01-0.05,0-0.08-0.01   c-0.07-0.01-0.13-0.02-0.2-0.02c-0.07,0-0.13,0-0.2,0.02c-0.03,0.01-0.05,0-0.08,0.01c-0.04,0.01-0.06,0.04-0.09,0.05   c-0.06,0.03-0.12,0.06-0.18,0.09c-0.05,0.04-0.1,0.07-0.14,0.12c-0.05,0.05-0.09,0.09-0.12,0.15c-0.04,0.06-0.07,0.11-0.09,0.18   c-0.01,0.03-0.04,0.06-0.05,0.09c-0.03,0.11-3.23,10.8-9.86,11.07c-0.04,0-0.08,0.02-0.12,0.03c-0.09,0.01-0.17,0.03-0.25,0.06   c-0.03,0.01-0.06,0.04-0.09,0.05c-0.08,0.05-0.16,0.1-0.22,0.16c-0.03,0.03-0.05,0.07-0.08,0.11c-0.05,0.06-0.09,0.12-0.12,0.2   c-0.02,0.06-0.03,0.12-0.04,0.18c-0.01,0.05-0.04,0.1-0.04,0.16c0,0.01,0.01,0.03,0.01,0.04c0,0.01-0.01,0.03-0.01,0.04   c0,0.06,0.03,0.11,0.04,0.16c0.01,0.06,0.02,0.12,0.04,0.18c0.03,0.06,0.07,0.12,0.11,0.17c0.03,0.05,0.06,0.1,0.1,0.14   c0.05,0.05,0.11,0.08,0.17,0.12c0.05,0.03,0.09,0.07,0.14,0.09c0.07,0.03,0.14,0.04,0.22,0.05c0.05,0.01,0.09,0.03,0.14,0.03   c6.63,0.27,9.83,10.96,9.86,11.07c0.01,0.04,0.04,0.08,0.06,0.12c0.02,0.04,0.03,0.08,0.06,0.12c0.05,0.08,0.1,0.14,0.17,0.2   c0.02,0.02,0.04,0.05,0.07,0.07c0.1,0.07,0.2,0.13,0.32,0.17c0.01,0,0.01,0.01,0.01,0.01c0.09,0.03,0.19,0.04,0.28,0.04   s0.19-0.01,0.28-0.04c0.01,0,0.01-0.01,0.01-0.01c0.12-0.04,0.22-0.09,0.32-0.17c0.03-0.02,0.04-0.05,0.07-0.07   c0.06-0.06,0.12-0.12,0.17-0.2c0.02-0.04,0.04-0.08,0.06-0.12c0.02-0.04,0.04-0.08,0.06-0.12c0.03-0.11,3.23-10.8,9.86-11.07   c0.05,0,0.09-0.03,0.14-0.03c0.08-0.01,0.15-0.02,0.22-0.05c0.05-0.02,0.09-0.06,0.14-0.09c0.06-0.04,0.12-0.07,0.17-0.12   c0.04-0.04,0.07-0.09,0.1-0.14c0.04-0.06,0.08-0.11,0.11-0.17C86.23,24.74,86.24,24.67,86.25,24.61z M74.51,33.31   c-1.18-2.77-3.48-6.99-7.1-8.9c3.62-1.91,5.92-6.13,7.1-8.9c1.18,2.77,3.48,6.99,7.1,8.9C77.99,26.32,75.69,30.54,74.51,33.31z"/><path class='path' d="M59.2,31.39c-0.01-0.07-0.02-0.14-0.05-0.2c-0.02-0.05-0.06-0.1-0.09-0.14c-0.04-0.06-0.08-0.12-0.13-0.17   c-0.04-0.04-0.08-0.06-0.13-0.09c-0.06-0.04-0.12-0.09-0.19-0.12c-0.06-0.02-0.12-0.03-0.18-0.04c-0.05-0.01-0.1-0.04-0.16-0.04   c-1.79-0.07-2.99-2.84-3.3-3.9c-0.01-0.04-0.04-0.06-0.05-0.1c-0.03-0.06-0.05-0.12-0.09-0.17c-0.04-0.05-0.08-0.1-0.12-0.15   c-0.04-0.04-0.09-0.08-0.14-0.12c-0.06-0.04-0.12-0.07-0.18-0.1c-0.03-0.01-0.06-0.04-0.09-0.05C54.27,26,54.25,26,54.22,26   c-0.07-0.01-0.13-0.02-0.2-0.02c-0.07,0-0.13,0-0.2,0.02c-0.03,0.01-0.05,0-0.08,0.01c-0.03,0.01-0.06,0.03-0.09,0.05   c-0.06,0.03-0.12,0.06-0.18,0.1c-0.05,0.04-0.1,0.07-0.14,0.12c-0.05,0.05-0.09,0.09-0.12,0.15c-0.04,0.06-0.07,0.11-0.09,0.18   c-0.01,0.03-0.04,0.06-0.05,0.09c-0.31,1.06-1.51,3.83-3.3,3.9c-0.06,0-0.11,0.03-0.16,0.04c-0.06,0.01-0.12,0.02-0.18,0.04   c-0.07,0.03-0.12,0.07-0.18,0.11c-0.05,0.03-0.09,0.06-0.13,0.1c-0.05,0.05-0.08,0.11-0.12,0.17c-0.03,0.05-0.07,0.1-0.09,0.15   c-0.03,0.06-0.03,0.13-0.05,0.2c-0.01,0.05-0.04,0.1-0.04,0.15c0,0.01,0.01,0.03,0.01,0.04c0,0.01-0.01,0.03-0.01,0.04   c0,0.06,0.03,0.11,0.04,0.16c0.01,0.06,0.02,0.12,0.04,0.18c0.03,0.06,0.07,0.12,0.11,0.17c0.03,0.05,0.06,0.1,0.1,0.14   c0.05,0.05,0.11,0.08,0.17,0.12c0.05,0.03,0.09,0.07,0.14,0.09c0.07,0.03,0.14,0.04,0.22,0.05c0.05,0.01,0.09,0.03,0.14,0.03   c1.79,0.07,2.99,2.84,3.3,3.9c0.01,0.04,0.04,0.08,0.06,0.12c0.02,0.04,0.03,0.08,0.06,0.12c0.05,0.07,0.1,0.14,0.16,0.2   c0.02,0.02,0.04,0.05,0.07,0.07c0.1,0.07,0.2,0.13,0.32,0.17c0.01,0,0.01,0.01,0.01,0.01c0.09,0.03,0.19,0.04,0.28,0.04   s0.19-0.01,0.28-0.04c0.01,0,0.01-0.01,0.01-0.01c0.12-0.04,0.22-0.09,0.32-0.17c0.03-0.02,0.04-0.05,0.07-0.07   c0.06-0.06,0.12-0.12,0.16-0.2c0.02-0.04,0.04-0.08,0.06-0.12c0.02-0.04,0.04-0.08,0.06-0.12c0.31-1.06,1.51-3.83,3.3-3.9   c0.05,0,0.09-0.03,0.14-0.03c0.08-0.01,0.15-0.02,0.22-0.05c0.05-0.02,0.09-0.06,0.14-0.09c0.06-0.04,0.12-0.07,0.17-0.12   c0.04-0.04,0.07-0.09,0.1-0.14c0.04-0.06,0.08-0.11,0.11-0.17c0.02-0.06,0.03-0.12,0.04-0.18c0.01-0.06,0.04-0.11,0.04-0.16   c0-0.01-0.01-0.03-0.01-0.04c0-0.01,0.01-0.03,0.01-0.04C59.24,31.49,59.21,31.44,59.2,31.39z M54.02,33.7   c-0.42-0.74-0.99-1.52-1.72-2.12c0.73-0.6,1.3-1.38,1.72-2.12c0.42,0.74,0.99,1.52,1.72,2.12C55.01,32.18,54.44,32.96,54.02,33.7z"/><path class='path' d="M73.73,43.17c-0.01-0.07-0.02-0.14-0.05-0.2c-0.02-0.05-0.06-0.1-0.09-0.15c-0.04-0.06-0.07-0.12-0.12-0.17   c-0.04-0.04-0.09-0.06-0.13-0.1c-0.06-0.04-0.12-0.08-0.18-0.11c-0.06-0.02-0.12-0.03-0.18-0.04c-0.05-0.01-0.1-0.04-0.16-0.04   c-2.64-0.11-4.36-4.04-4.8-5.54c-0.01-0.04-0.04-0.06-0.05-0.09c-0.03-0.06-0.05-0.12-0.09-0.18c-0.04-0.05-0.08-0.1-0.12-0.15   c-0.04-0.04-0.09-0.08-0.14-0.12c-0.06-0.04-0.12-0.07-0.18-0.1c-0.03-0.01-0.06-0.04-0.09-0.05c-0.03-0.01-0.05,0-0.08-0.01   c-0.07-0.01-0.13-0.02-0.2-0.02c-0.07,0-0.14,0-0.2,0.02c-0.03,0.01-0.05,0-0.08,0.01c-0.03,0.01-0.06,0.03-0.09,0.05   c-0.07,0.03-0.12,0.06-0.18,0.1c-0.05,0.04-0.1,0.07-0.14,0.12c-0.05,0.04-0.08,0.09-0.12,0.15c-0.04,0.06-0.07,0.12-0.09,0.18   c-0.01,0.03-0.04,0.06-0.05,0.09c-0.44,1.5-2.16,5.43-4.8,5.54c-0.06,0-0.11,0.03-0.16,0.04c-0.06,0.01-0.13,0.02-0.19,0.05   c-0.06,0.03-0.11,0.06-0.16,0.1c-0.05,0.04-0.11,0.07-0.15,0.11c-0.04,0.04-0.07,0.1-0.11,0.15c-0.04,0.05-0.08,0.1-0.1,0.17   c-0.03,0.06-0.03,0.12-0.05,0.19c-0.01,0.05-0.04,0.1-0.04,0.16c0,0.01,0.01,0.03,0.01,0.04c0,0.01-0.01,0.03-0.01,0.04   c0,0.06,0.03,0.11,0.04,0.17c0.01,0.06,0.02,0.12,0.04,0.18c0.03,0.07,0.07,0.12,0.11,0.18c0.03,0.05,0.06,0.1,0.1,0.14   c0.05,0.05,0.11,0.08,0.17,0.12c0.05,0.03,0.09,0.07,0.14,0.09c0.07,0.03,0.15,0.04,0.22,0.05c0.05,0.01,0.09,0.03,0.14,0.03   c2.64,0.11,4.36,4.04,4.8,5.54c0.01,0.04,0.04,0.08,0.06,0.12c0.02,0.04,0.03,0.08,0.06,0.12c0.04,0.07,0.1,0.13,0.16,0.19   c0.03,0.02,0.04,0.05,0.07,0.07c0.1,0.07,0.2,0.13,0.32,0.17c0.01,0,0.01,0.01,0.02,0.01c0.09,0.03,0.19,0.04,0.28,0.04   c0.09,0,0.19-0.01,0.28-0.04c0.01,0,0.01-0.01,0.02-0.01c0.12-0.04,0.22-0.09,0.32-0.17c0.03-0.02,0.05-0.05,0.07-0.07   c0.06-0.06,0.12-0.12,0.16-0.19c0.02-0.04,0.04-0.08,0.06-0.12c0.02-0.04,0.04-0.07,0.06-0.12c0.44-1.5,2.16-5.43,4.8-5.54   c0.05,0,0.09-0.03,0.14-0.03c0.08-0.01,0.15-0.02,0.22-0.05c0.05-0.02,0.09-0.06,0.14-0.09c0.06-0.04,0.12-0.07,0.17-0.12   c0.04-0.04,0.07-0.09,0.1-0.14c0.04-0.06,0.08-0.11,0.11-0.18c0.02-0.06,0.03-0.12,0.04-0.18c0.01-0.06,0.04-0.11,0.04-0.16   c0-0.01-0.01-0.03-0.01-0.04c0-0.01,0.01-0.03,0.01-0.04C73.77,43.27,73.74,43.22,73.73,43.17z M67.05,46.98   c-0.63-1.24-1.58-2.68-2.9-3.62c1.32-0.94,2.27-2.38,2.9-3.62c0.63,1.24,1.58,2.68,2.9,3.62C68.63,44.3,67.68,45.74,67.05,46.98z"/></svg>