<svg xmlns="http://www.w3.org/2000/svg" xmlns:xlink="http://www.w3.org/1999/xlink" version="1.1" x="0px" y="0px" viewBox="0 0 100 125" enable-background="new 0 0 100 100" xml:space="preserve">

<style>
    .background { fill: #4169E1; } /* Royal Blue background color */
    .path { fill: #FFFFFF; } /* White color for the path */
  </style>
  <rect class="background" width="100%" height="100%"/>

<path class='path' d="M93.627,72.27L78.188,54.984c-1.025-1.148-2.495-1.806-4.033-1.806h-6.033V39.254v-5.047V22.351   c0-7.634-6.21-13.844-13.845-13.844c-3.066,0-6.015,1.011-8.425,2.863l-4.192-4.636c-0.319-0.352-0.787-0.53-1.257-0.48   c-0.473,0.05-0.892,0.323-1.128,0.734c-2.175,3.767-1.674,8.464,1.244,11.689c1.888,2.087,4.587,3.285,7.405,3.285c0,0,0,0,0.001,0   c1.424,0,2.804-0.295,4.098-0.877c0.433-0.195,0.746-0.585,0.843-1.049c0.098-0.465-0.032-0.948-0.352-1.3l-4.662-5.155   c1.857-1.362,4.098-2.107,6.425-2.107c5.998,0,10.878,4.879,10.878,10.877v10.372h-31.34c-0.819,0-1.483,0.664-1.483,1.484v5.047   c0,0.819,0.664,1.483,1.483,1.483h31.34v12.44H36.659L14.442,28.332c-1.024-1.146-2.494-1.804-4.033-1.804   c-1.331,0-2.612,0.489-3.604,1.377c-1.078,0.963-1.716,2.288-1.796,3.73c-0.081,1.442,0.405,2.83,1.368,3.907l23.831,26.649   c1.023,1.146,2.492,1.804,4.032,1.804h37.491l13.827,15.479c1.025,1.148,2.497,1.806,4.036,1.806c1.33,0,2.609-0.488,3.602-1.374   C95.421,77.921,95.614,74.495,93.627,72.27z"/><path class='path' d="M62.147,84.374h-3.275v-17.41h-8.896v17.41h-4.193c-4.9,0-8.886,3.987-8.886,8.887c0,0.273,0.221,0.495,0.494,0.495h33.148   c0.272,0,0.494-0.221,0.494-0.495C71.033,88.36,67.047,84.374,62.147,84.374z"/></svg>