<svg xmlns="http://www.w3.org/2000/svg" xmlns:xlink="http://www.w3.org/1999/xlink" version="1.1" x="0px" y="0px" viewBox="0 0 100 125" enable-background="new 0 0 100 100" xml:space="preserve">

<style>
    .background { fill: #4169E1; } /* Royal Blue background color */
    .path { fill: #FFFFFF; } /* White color for the path */
  </style>
  <rect class="background" width="100%" height="100%"/>

<path class='path' d="M38.654,63.255c0.78,1.574,1.665,1.917,2.271,1.923c0.005,0,0.01,0,0.015,0c0.4,0,1.129-0.151,1.633-1.134  c0.008-0.015,0.006-0.031,0.013-0.047c0.01-0.021,0.025-0.037,0.034-0.06c0.541-1.443,2.506-6.268,5.274-8.307  c0.015-0.009,0.033-0.01,0.048-0.02c0.135-0.09,0.335-0.18,0.516-0.12c0.159,0.055,0.298,0.233,0.388,0.484  c0.775,3.353-0.926,8.327-1.47,9.778c-0.007,0.02-0.003,0.039-0.009,0.059s-0.021,0.033-0.025,0.054  c-0.267,1.087,0.2,1.681,0.501,1.938c0.268,0.229,0.68,0.434,1.295,0.434c0.446,0,1-0.109,1.681-0.394  c0.001-0.001,0.003,0,0.004-0.001c0.461-0.177,11.331-4.481,16.219-17.535c0.002-0.006,0.001-0.012,0.003-0.017  c0.002-0.006,0.007-0.01,0.009-0.016c0.896-2.391,3.272-8.744-1.239-11.438c-0.01-0.006-0.021-0.005-0.031-0.011  c-0.01-0.006-0.016-0.016-0.026-0.021c-5.662-2.893-9.648-1.668-11.317-0.855c-0.07-0.096-0.141-0.19-0.212-0.288  c-1.668-2.279-3.557-4.863-7.742-6.076c-0.017-0.005-0.034,0-0.052-0.004c-0.018-0.004-0.031-0.016-0.049-0.02  c-5.169-0.93-7.553,5.42-8.449,7.812c0,0,0,0.001,0,0.001c0,0,0,0,0,0C33.05,52.426,38.419,62.814,38.65,63.25  C38.651,63.252,38.653,63.253,38.654,63.255z M39.81,40.076C39.81,40.076,39.81,40.076,39.81,40.076c0-0.001,0-0.001,0-0.001  c1.323-3.533,3.088-7.077,6.174-6.55c3.489,1.029,5.017,3.111,6.629,5.317c1.569,2.145,3.191,4.363,6.595,5.12  c0.072,0.016,0.146,0.024,0.218,0.024c0.458,0,0.871-0.317,0.976-0.783c0.119-0.539-0.22-1.073-0.76-1.193  c-1.768-0.394-2.92-1.297-3.928-2.444c1.474-0.603,4.61-1.278,9.099,1.003c2.684,1.629,1.694,5.465,0.369,9.005l-0.001,0.002  c-0.002,0.006-0.001,0.012-0.003,0.018c-0.002,0.005-0.006,0.008-0.008,0.013c-4.561,12.18-14.959,16.329-15.064,16.37  c-0.005,0.002-0.008,0.006-0.013,0.008c-0.006,0.003-0.012,0.002-0.018,0.004c-0.325,0.138-0.566,0.199-0.737,0.228  c0.796-2.181,2.325-7.105,1.442-10.769c-0.003-0.015-0.015-0.025-0.019-0.04c-0.004-0.016-0.001-0.03-0.006-0.045  c-0.29-0.859-0.89-1.502-1.646-1.763c-0.657-0.225-1.363-0.139-2.019,0.213c-0.091,0.03-0.184,0.06-0.266,0.118  c-3.075,2.186-5.155,6.9-5.986,9.067c-0.111-0.134-0.252-0.339-0.407-0.655c-0.002-0.005-0.007-0.008-0.01-0.013  s-0.002-0.01-0.004-0.015C40.366,62.216,35.25,52.254,39.81,40.076z"/><path class='path' d="M97.5,57.942H67.342c-0.553,0-1,0.447-1,1c0,10.636-7.331,19.288-16.342,19.288s-16.341-8.652-16.341-19.288  c0-0.553-0.448-1-1-1H2.5c-0.552,0-1,0.447-1,1s0.448,1,1,1h29.202C32.157,71.215,40.178,80.23,50,80.23s17.844-9.016,18.298-20.288  H97.5c0.553,0,1-0.447,1-1S98.053,57.942,97.5,57.942z"/><path class='path' d="M24.86,35.641C24.86,35.641,24.86,35.641,24.86,35.641c0,0.001,0,0.002,0,0.002l0.461,2.51  c0.002,0.026-0.006,0.051-0.001,0.078c0.005,0.03,0.023,0.053,0.031,0.082l1.973,10.745v0c0.193,1.046,0.999,1.823,1.978,2.042  l0.329,1.784c0.008,0.042,0.031,0.076,0.043,0.115c0.016,0.052,0.031,0.102,0.056,0.15c0.037,0.072,0.084,0.135,0.136,0.196  c0.022,0.025,0.032,0.057,0.056,0.08l4.397,4.21c0.194,0.186,0.442,0.277,0.691,0.277c0.263,0,0.526-0.104,0.722-0.309  c0.382-0.398,0.368-1.032-0.031-1.414l-4.164-3.986l-0.268-1.458c0.275-0.181,0.517-0.414,0.709-0.692  c0.391-0.567,0.537-1.252,0.413-1.929c0,0,0,0,0,0l-2.463-13.414c0,0,0,0,0-0.001s0,0,0-0.001l-0.44-2.4  c-0.002-0.014,0.003-0.026,0-0.04s-0.012-0.023-0.015-0.037l-1.625-8.848c-0.178-0.971-0.547-1.862-1.04-2.51  c-0.629-0.83-1.446-1.219-2.238-1.076c-1.468,0.27-2.222,2.169-1.791,4.516L24.86,35.641z M30.424,48.488L30.424,48.488  c0.028,0.152-0.005,0.305-0.092,0.432c-0.087,0.127-0.219,0.212-0.371,0.24c-0.31,0.061-0.614-0.151-0.671-0.463v0l-1.808-9.845  l1.134-0.208L30.424,48.488z M28.142,36.056l0.114,0.62l-1.135,0.208l-0.114-0.62L28.142,36.056z M27.781,34.089l-1.134,0.208  l-0.087-0.473l1.134-0.208L27.781,34.089z M24.938,21.799c0.24,0.154,0.732,0.796,0.943,1.948l1.451,7.902l-1.134,0.208  l-1.451-7.902C24.536,22.802,24.768,22.027,24.938,21.799z"/></svg>