<svg xmlns="http://www.w3.org/2000/svg" xmlns:xlink="http://www.w3.org/1999/xlink" version="1.1" x="0px" y="0px" viewBox="0 0 100 125" style="enable-background:new 0 0 100 100;" xml:space="preserve">

<style>
    .background { fill: #4169E1; } /* Royal Blue background color */
    .path { fill: #FFFFFF; } /* White color for the path */
  </style>
  <rect class="background" width="100%" height="100%"/>

<path class='path' d="M72.42,7.69c-6.29-4.44-12.08-2.15-17.19-0.13c-2.12,0.84-4.38,1.48-6.44,2.11c-0.63-0.25-1.26-0.52-1.91-0.79  C40.89,6.37,34.1,3.52,27.76,7.67c-4.44,2.91-7.11,8.86-6.81,15.16c0.32,6.67,3.91,12.3,9.86,15.44c0.03,0.01,0.06,0.02,0.09,0.03  l2.61,7.06c0.13,0.36,0.46,0.6,0.84,0.64v2.63l-1.45-0.38c-0.53-0.14-1.08,0.18-1.22,0.72c-0.14,0.53,0.18,1.08,0.72,1.22l1.95,0.51  v8.74l-1.45-0.38c-0.53-0.14-1.08,0.18-1.22,0.72c-0.14,0.53,0.18,1.08,0.72,1.22l1.95,0.51v8.74l-1.45-0.38  c-0.53-0.14-1.08,0.18-1.22,0.72c-0.14,0.53,0.18,1.08,0.72,1.22l1.95,0.51v8.96c0,1.78,0.85,3.48,2.29,4.54l11.06,8.2  c0.76,0.57,1.66,0.85,2.55,0.85c0.9,0,1.79-0.28,2.55-0.85l11.06-8.2c1.43-1.06,2.29-2.76,2.29-4.54v-0.66c0,0,1.13,0.28,1.22,0.28  c0.44,0,0.85-0.3,0.97-0.75c0.14-0.53-0.18-1.08-0.72-1.22l-1.47-0.38v-8.74c0,0,1.13,0.28,1.22,0.28c0.44,0,0.85-0.3,0.97-0.75  c0.14-0.53-0.18-1.08-0.72-1.22l-1.47-0.38V59c0,0,1.13,0.28,1.22,0.28c0.44,0,0.85-0.3,0.97-0.75c0.14-0.53-0.18-1.08-0.72-1.22  l-1.47-0.38V45.9c0.21-0.11,0.39-0.29,0.48-0.53l2.61-7.05c0.04-0.02,0.09-0.03,0.13-0.05c5.77-3.13,9.3-8.71,9.69-15.32  C79.41,16.69,76.87,10.84,72.42,7.69z M62.66,84.21l-11.06,8.2c-0.82,0.61-1.91,0.6-2.73,0l-11.06-8.2  c-0.26-0.2-0.49-0.43-0.69-0.69h26.21C63.15,83.78,62.92,84.01,62.66,84.21z M64.11,81.52H36.37c-0.01-0.08-0.03-8.68-0.03-8.68  l27.79,7.25C64.14,80.09,64.11,81.44,64.11,81.52z M64.14,78.02l-27.79-7.25v-8.74l27.79,7.25V78.02z M64.14,67.22l-27.79-7.25  v-8.74l27.79,7.25V67.22z M36.35,49.16v-3.14h27.79v10.39L36.35,49.16z M64.98,44.03H35.35h-0.2l-2.08-5.63h34.01L64.98,44.03z   M77.04,22.84c-0.34,5.82-3.41,10.75-8.42,13.56H68.5H31.62h-0.1c-5.18-2.82-8.3-7.78-8.58-13.65c-0.26-5.53,2.12-10.91,5.91-13.4  c5.45-3.57,11.45-1.05,17.25,1.38c2.59,1.09,5.04,2.11,7.34,2.54c0.55,0.1,1.06-0.26,1.17-0.8c0.1-0.54-0.26-1.06-0.8-1.17  c-0.57-0.1-1.15-0.25-1.75-0.44c1.32-0.42,2.63-0.94,3.91-1.44c5.09-2.01,9.89-3.91,15.3-0.09C75.1,12.04,77.37,17.34,77.04,22.84z"/></svg>